HIERARCHY
ROOT Hips
{
	OFFSET 0.000000 0.000000 0.000000
	CHANNELS 6 Xposition Yposition Zposition Xrotation Yrotation Zrotation
	JOINT LeftUpLeg_virtual
	{
		OFFSET 0.000000 0.000000 0.000000
		CHANNELS 3 Xrotation Yrotation Zrotation
		JOINT LeftUpLeg
		{
			OFFSET 13.026900 -6.336304 -1.092800
			CHANNELS 3 Xrotation Yrotation Zrotation
			JOINT LeftLeg
			{
				OFFSET 0.524474 -46.096886 9.782700
				CHANNELS 3 Xrotation Yrotation Zrotation
				JOINT LeftFoot
				{
					OFFSET -0.524474 -53.427422 -12.948200
					CHANNELS 3 Xrotation Yrotation Zrotation
					JOINT LeftToeBase
					{
						OFFSET 0.192200 -14.009700 16.364100
						CHANNELS 3 Xrotation Yrotation Zrotation
						JOINT LeftToe_End
						{
							OFFSET -1.784700 -0.561700 9.474800
							CHANNELS 3 Xrotation Yrotation Zrotation
							End Site
							{
								OFFSET 0 0 0
							}
						}
					}
				}
			}
		}
	}
	JOINT RightUpLeg_virtual
	{
		OFFSET 0.000000 0.000000 0.000000
		CHANNELS 3 Xrotation Yrotation Zrotation
		JOINT RightUpLeg
		{
			OFFSET -12.883000 -6.336304 -1.092800
			CHANNELS 3 Xrotation Yrotation Zrotation
			JOINT RightLeg
			{
				OFFSET -0.524587 -46.096825 9.782800
				CHANNELS 3 Xrotation Yrotation Zrotation
				JOINT RightFoot
				{
					OFFSET 0.524587 -53.427383 -12.948300
					CHANNELS 3 Xrotation Yrotation Zrotation
					JOINT RightToeBase
					{
						OFFSET -0.192200 -14.009700 16.364100
						CHANNELS 3 Xrotation Yrotation Zrotation
						JOINT RightToe_End
						{
							OFFSET 1.784700 -0.561700 9.474800
							CHANNELS 3 Xrotation Yrotation Zrotation
							End Site
							{
								OFFSET 0 0 0
							}
						}
					}
				}
			}
		}
	}
	JOINT Spine_virtual
	{
		OFFSET 0.000000 0.000000 0.000000
		CHANNELS 3 Xrotation Yrotation Zrotation
		JOINT Spine
		{
			OFFSET 0.072000 7.257294 -0.789700
			CHANNELS 3 Xrotation Yrotation Zrotation
			JOINT Spine1
			{
				OFFSET 0.000000 12.508769 -0.658067
				CHANNELS 3 Xrotation Yrotation Zrotation
				JOINT Spine1_split
				{
					OFFSET 0.000000 12.508769 -0.658067
					CHANNELS 3 Xrotation Yrotation Zrotation
					JOINT Spine2
					{
						OFFSET 0.000000 12.508769 -0.658067
						CHANNELS 3 Xrotation Yrotation Zrotation
						JOINT Neck_virtual
						{
							OFFSET 0.000000 0.000000 0.000000
							CHANNELS 3 Xrotation Yrotation Zrotation
							JOINT Neck
							{
								OFFSET 0.000000 14.033295 7.520400
								CHANNELS 3 Xrotation Yrotation Zrotation
								JOINT Head
								{
									OFFSET 0.000000 8.198502 5.703100
									CHANNELS 3 Xrotation Yrotation Zrotation
									JOINT HeadTop_End
									{
										OFFSET 0.000000 17.760803 13.332701
										CHANNELS 3 Xrotation Yrotation Zrotation
										End Site
										{
											OFFSET 0 0 0
										}
									}
								}
							}
						}
						JOINT LeftShoulder_virtual
						{
							OFFSET 0.000000 0.000000 0.000000
							CHANNELS 3 Xrotation Yrotation Zrotation
							JOINT LeftShoulder
							{
								OFFSET 6.292450 5.785301 -0.669000
								CHANNELS 3 Xrotation Yrotation Zrotation
								JOINT LeftShoulder_split
								{
									OFFSET 6.292450 5.785301 -0.669000
									CHANNELS 3 Xrotation Yrotation Zrotation
									JOINT LeftArm
									{
										OFFSET 13.907140 -6.093903 1.965100
										CHANNELS 3 Xrotation Yrotation Zrotation
										JOINT LeftForeArm
										{
											OFFSET 34.140198 0.000000 0.000000
											CHANNELS 3 Xrotation Yrotation Zrotation
											JOINT LeftHand
											{
												OFFSET 40.960209 0.000000 0.000000
												CHANNELS 3 Xrotation Yrotation Zrotation
												End Site
												{
													OFFSET 0 0 0
												}
											}
										}
									}
								}
							}
						}
						JOINT RightShoulder_virtual
						{
							OFFSET 0.000000 0.000000 0.000000
							CHANNELS 3 Xrotation Yrotation Zrotation
							JOINT RightShoulder
							{
								OFFSET -6.292450 5.785301 -0.669000
								CHANNELS 3 Xrotation Yrotation Zrotation
								JOINT RightShoulder_split
								{
									OFFSET -6.292450 5.785301 -0.669000
									CHANNELS 3 Xrotation Yrotation Zrotation
									JOINT RightArm
									{
										OFFSET -13.907140 -6.093903 1.965100
										CHANNELS 3 Xrotation Yrotation Zrotation
										JOINT RightForeArm
										{
											OFFSET -34.140198 0.000000 0.000000
											CHANNELS 3 Xrotation Yrotation Zrotation
											JOINT RightHand
											{
												OFFSET -40.960209 0.000000 0.000000
												CHANNELS 3 Xrotation Yrotation Zrotation
												End Site
												{
													OFFSET 0 0 0
												}
											}
										}
									}
								}
							}
						}
					}
				}
			}
		}
	}
}
MOTION
Frames: 5
Frame Time: 0.03333333
-0.850266 88.880959 4.841251 0.000000 0.000000 0.000000 26.112173 -23.034717 9.017801 -77.343163 -2.630947 23.177781 58.087077 -0.280478 5.066722 -1.971478 1.070386 -19.017475 -0.000032 0.000001 0.000034 0.000000 0.000000 0.000000 26.112173 -23.034717 9.017801 -72.331731 -4.182408 -23.001043 62.170376 -0.396283 -7.240427 -10.919491 -3.413503 17.766948 -7.598692 -0.000004 0.000002 0.000000 0.000000 0.000000 26.112173 -23.034717 9.017801 14.961215 2.662774 -1.012960 9.003407 1.560768 -0.642828 0.000000 0.000000 0.000000 0.000000 0.000000 0.000000 8.977748 1.670480 -0.748274 -7.842650 3.349097 -7.790141 -42.916968 9.463873 7.869839 0.000000 0.000000 0.000000 8.977748 1.670480 -0.748274 3.941268 -6.602831 9.980196 0.000000 0.000000 0.000000 -51.728892 5.083706 -64.509538 0.000188 -86.914157 0.000145 0.000000 0.000000 0.000000 8.977748 1.670480 -0.748274 3.972210 12.305901 4.222352 0.000000 0.000000 0.000000 -39.870584 11.659999 46.257118 179.994035 88.978746 -179.994199 0.000000 0.000000 0.000000 
-0.838232 89.301720 5.085014 0.000000 0.000000 0.000000 26.329488 -23.083558 9.081426 -77.066151 -2.312057 23.153984 57.672437 -0.376073 5.114867 -2.159036 1.039706 -18.894912 -0.000015 0.000001 0.000019 0.000000 0.000000 0.000000 26.329488 -23.083558 9.081426 -71.997673 -4.551239 -22.869726 61.513592 -0.615733 -7.529228 -10.959939 -3.034218 17.675099 -7.630242 0.000009 0.000010 0.000000 0.000000 0.000000 26.329488 -23.083558 9.081426 14.959211 2.472226 -1.106448 8.954929 1.454256 -0.667655 0.000000 0.000000 0.000000 0.000000 0.000000 0.000000 8.929226 1.567214 -0.769624 -7.642834 3.429840 -7.508565 -43.074779 9.987862 7.921034 0.000000 0.000000 0.000000 8.929226 1.567214 -0.769624 3.858302 -6.469474 9.422129 0.000000 0.000000 0.000000 -49.881046 5.784870 -65.370948 0.008398 -89.198377 0.008216 0.000000 0.000000 0.000000 8.929226 1.567214 -0.769624 3.960213 12.222857 4.273389 0.000000 0.000000 0.000000 -38.946893 11.840058 48.020833 179.999909 86.265194 -179.999882 0.000000 0.000000 0.000000 
-0.881662 89.516151 5.227680 0.000000 0.000000 0.000000 26.602019 -23.228990 9.195067 -76.959559 -2.197037 23.230863 57.486595 -0.411983 5.176715 -2.338785 1.051030 -19.013414 -0.000052 0.000001 0.000052 0.000000 0.000000 0.000000 26.602019 -23.228990 9.195067 -71.944288 -4.734334 -22.600329 61.195934 -0.747244 -7.767183 -11.024037 -2.850081 17.538853 -7.690691 0.000008 -0.000002 0.000000 0.000000 0.000000 26.602019 -23.228990 9.195067 14.971353 2.197389 -1.153844 8.932665 1.291013 -0.662412 0.000000 0.000000 0.000000 0.000000 0.000000 0.000000 8.908022 1.411636 -0.757963 -7.575342 3.601992 -7.236721 -43.266670 10.835727 8.058441 0.000000 0.000000 0.000000 8.908022 1.411636 -0.757963 3.730450 -6.286347 8.218743 0.000000 0.000000 0.000000 -48.220217 5.755348 -65.566592 -179.982615 -88.580450 -179.982711 0.000000 0.000000 0.000000 8.908022 1.411636 -0.757963 3.981628 12.107285 3.979449 0.000000 0.000000 0.000000 -38.415842 11.620494 49.978762 -179.999349 83.383516 179.999363 0.000000 0.000000 0.000000 
-0.994188 89.561607 5.286922 0.000000 0.000000 0.000000 26.946718 -23.416668 9.385920 -77.004454 -2.220248 23.353441 57.452109 -0.398552 5.263707 -2.500316 1.090391 -19.287448 -0.000003 -0.000004 -0.000003 0.000000 0.000000 0.000000 26.946718 -23.416668 9.385920 -72.144823 -4.748215 -22.260261 61.139728 -0.722758 -7.988388 -11.020778 -2.850388 17.592850 -7.700355 0.000002 0.000002 0.000000 0.000000 0.000000 26.946718 -23.416668 9.385920 14.996722 1.910371 -1.120144 8.922840 1.103811 -0.624603 0.000000 0.000000 0.000000 0.000000 0.000000 0.000000 8.900818 1.229004 -0.711223 -7.629425 3.839549 -7.045022 -43.504425 11.961173 8.054572 0.000000 0.000000 0.000000 8.900818 1.229004 -0.711223 3.590616 -6.098772 6.593868 0.000000 0.000000 0.000000 -46.754721 5.551509 -65.181267 -179.997860 -86.628259 -179.997819 0.000000 0.000000 0.000000 8.900818 1.229004 -0.711223 3.972951 11.944951 3.645314 0.000000 0.000000 0.000000 -37.723879 11.625848 51.744229 -179.999732 80.145030 179.999745 0.000000 0.000000 0.000000 
-1.188997 89.455772 5.262180 0.000000 0.000000 0.000000 27.274902 -23.618060 9.622425 -77.134064 -2.306942 23.508307 57.537090 -0.387611 5.388043 -2.637649 1.141766 -19.633498 -0.000005 0.000004 0.000020 0.000000 0.000000 0.000000 27.274902 -23.618060 9.622425 -72.520941 -4.636355 -21.915190 61.336615 -0.665898 -8.211573 -10.994590 -2.880896 17.814325 -7.670945 0.000019 -0.000004 0.000000 0.000000 0.000000 27.274902 -23.618060 9.622425 15.077899 1.705370 -1.033674 8.939665 0.957386 -0.571682 0.000000 0.000000 0.000000 0.000000 0.000000 0.000000 8.920489 1.082581 -0.650628 -7.736409 4.058793 -6.950459 -43.731666 13.107988 7.767550 0.000000 0.000000 0.000000 8.920489 1.082581 -0.650628 3.463471 -5.915799 5.093589 0.000000 0.000000 0.000000 -45.480324 5.589814 -64.700340 -179.999131 -85.077328 -179.999185 0.000000 0.000000 0.000000 8.920489 1.082581 -0.650628 3.929808 11.747141 3.404044 0.000000 0.000000 0.000000 -36.530300 12.188369 52.703399 -179.999814 76.844512 179.999814 0.000000 0.000000 0.000000 
